# xmcd CD database file
#
# Track frame offsets:
#	150
#	38967
#	66895
#	110013
#	148817
#	185191
#	213911
#
# Disc length: 3523 seconds
#
# Revision: 0
# Processed by: cddbd v1.5.2PL0 Copyright (c) Steve Scherf et al.
# Submitted via: CDex 1.51
#
DISCID=700dc107
DTITLE=Stephen Rhodes - Protected By Angels
DYEAR=2005
DGENRE=New Age
TTITLE0=Protected By Angels
TTITLE1=Heavens Awake
TTITLE2=Angel of the Ocean
TTITLE3=Archangel Michael
TTITLE4=Safe and Sound
TTITLE5=In Company of Angels
TTITLE6=Home in Paradise
EXTD=YEAR: 2005
EXTT0=
EXTT1=
EXTT2=
EXTT3=
EXTT4=
EXTT5=
EXTT6=
PLAYORDER=
